<?xml version="1.0" standalone="no"?>
<!DOCTYPE svg PUBLIC "-//W3C//DTD SVG 20010904//EN"
 "http://www.w3.org/TR/2001/REC-SVG-20010904/DTD/svg10.dtd">
<svg version="1.0" xmlns="http://www.w3.org/2000/svg"
 width="500.000000pt" height="500.000000pt" viewBox="0 0 500.000000 500.000000"
 preserveAspectRatio="xMidYMid meet">

<g transform="translate(0.000000,500.000000) scale(0.100000,-0.100000)"
fill="#000000" stroke="none">
<path d="M3897 2793 c-15 -14 -6 -33 18 -39 14 -3 25 -11 25 -16 0 -6 -11 -8
-25 -6 -30 6 -34 -8 -5 -17 21 -7 50 9 50 26 0 5 -11 14 -25 19 -31 12 -32 27
-2 33 20 4 20 4 -4 6 -14 0 -29 -2 -32 -6z"/>
<path d="M3970 2793 c0 -16 32 -83 40 -83 3 0 12 17 20 38 8 20 16 40 18 45 2
4 -1 7 -6 7 -5 0 -13 -11 -16 -25 -6 -23 -26 -36 -26 -17 0 14 -29 48 -30 35z"/>
<path d="M2306 2769 c-20 -16 -26 -29 -26 -59 0 -46 19 -62 93 -81 69 -17 84
-56 29 -74 -15 -4 -41 0 -69 10 -72 28 -88 -11 -17 -41 57 -24 111 -18 145 15
16 16 29 39 29 50 0 32 -41 69 -94 84 -58 16 -77 37 -56 62 14 17 34 17 103 0
22 -6 27 -4 27 12 0 44 -116 59 -164 22z"/>
<path d="M2767 2783 c-10 -10 -8 -246 2 -262 5 -8 16 -11 25 -8 14 5 16 27 16
142 0 124 -1 135 -18 135 -10 0 -22 -3 -25 -7z"/>
<path d="M2138 2753 c6 -2 18 -2 25 0 6 3 1 5 -13 5 -14 0 -19 -2 -12 -5z"/>
<path d="M1628 2700 l-33 -29 81 -1 c76 0 82 1 109 30 l29 30 -77 0 c-71 0
-79 -2 -109 -30z"/>
<path d="M1864 2723 c-17 -2 -42 -15 -55 -29 l-22 -24 85 0 c80 0 85 1 96 24
6 13 8 27 5 30 -7 6 -55 6 -109 -1z"/>
<path d="M2003 2703 l-28 -28 80 -7 c84 -8 100 -2 107 36 3 17 -5 19 -64 23
-63 4 -69 3 -95 -24z"/>
<path d="M2559 2697 c-63 -42 -62 -139 2 -172 65 -34 150 -1 164 64 10 45 -18
99 -59 116 -48 20 -67 19 -107 -8z m89 -33 c30 -21 31 -88 1 -104 -30 -17 -62
-8 -78 21 -18 33 -8 77 22 89 30 12 30 12 55 -6z"/>
<path d="M2888 2709 c-51 -20 -31 -56 20 -38 35 12 72 -2 72 -26 0 -11 -12
-15 -43 -15 -55 0 -87 -22 -87 -60 0 -47 67 -78 110 -50 9 5 19 5 27 -2 7 -5
20 -8 28 -4 12 4 15 23 15 84 0 65 -3 82 -19 96 -24 22 -86 29 -123 15z m92
-129 c0 -24 -34 -43 -60 -35 -19 6 -27 35 -13 48 3 4 21 7 40 7 26 0 33 -4 33
-20z"/>
<path d="M3151 2701 c-25 -25 -31 -26 -31 -6 0 8 -9 15 -20 15 -19 0 -20 -7
-20 -100 0 -91 2 -100 19 -100 24 0 31 19 31 80 0 53 18 80 51 80 15 0 20 6
17 22 -4 30 -23 33 -47 9z"/>
<path d="M1535 2619 c-19 -17 -35 -35 -35 -40 0 -5 37 -9 83 -9 l83 0 39 40
39 40 -87 0 c-82 0 -88 -1 -122 -31z"/>
<path d="M1735 2610 l-39 -40 96 0 96 0 21 34 c12 18 21 36 21 40 0 3 -35 6
-78 6 -78 0 -78 0 -117 -40z"/>
<path d="M1965 2642 c-6 -4 -21 -22 -34 -39 l-22 -33 99 0 100 0 11 31 c6 18
11 36 11 40 0 11 -151 12 -165 1z"/>
<path d="M3558 2623 c7 -3 16 -2 19 1 4 3 -2 6 -13 5 -11 0 -14 -3 -6 -6z"/>
<path d="M1418 2509 c-42 -40 -48 -49 -28 -44 14 4 63 10 110 12 78 4 88 7
118 36 17 17 32 35 32 39 0 4 -40 8 -89 8 l-90 0 -53 -51z"/>
<path d="M1651 2521 c-18 -22 -28 -42 -24 -44 5 -3 35 -8 68 -12 33 -3 70 -8
82 -11 17 -3 30 7 58 43 l37 48 -44 7 c-23 3 -66 7 -95 7 -48 1 -53 -1 -82
-38z"/>
<path d="M1866 2505 c-15 -25 -27 -48 -24 -50 11 -11 139 18 187 42 85 44 79
53 -36 53 l-98 0 -29 -45z"/>
<path d="M2288 2363 c7 -3 16 -2 19 1 4 3 -2 6 -13 5 -11 0 -14 -3 -6 -6z"/>
<path d="M2428 2363 c7 -3 16 -2 19 1 4 3 -2 6 -13 5 -11 0 -14 -3 -6 -6z"/>
</g>
</svg>
